<svg xmlns="http://www.w3.org/2000/svg" viewBox="0 0 175.8 40.2"><defs><style>.cls-1{fill:#fff;fill-rule:evenodd;}</style></defs><title>homeday_logo_white_svg</title><g id="Ebene_2" data-name="Ebene 2"><g id="Ebene_1-2" data-name="Ebene 1"><path class="cls-1" d="M56.53,21.28V29H48.59V21.28H45.22V40h3.37V32.22h7.94V40h3.36V21.28Zm7,9.35a13.69,13.69,0,0,1,.53-4,8.18,8.18,0,0,1,1.38-2.76,6.74,6.74,0,0,1,2-1.68,7.66,7.66,0,0,1,2.33-.87,12.54,12.54,0,0,1,2.45-.22,12.69,12.69,0,0,1,2.45.22,7.7,7.7,0,0,1,2.32.87,6.82,6.82,0,0,1,2,1.68,8,8,0,0,1,1.39,2.76,14,14,0,0,1,.53,4,14.11,14.11,0,0,1-.53,4,7.88,7.88,0,0,1-1.39,2.77,7.13,7.13,0,0,1-2,1.68,8.22,8.22,0,0,1-2.33.87,13.36,13.36,0,0,1-2.45.22A13.53,13.53,0,0,1,69.82,40a8.28,8.28,0,0,1-2.32-.87,6.91,6.91,0,0,1-2-1.68,8,8,0,0,1-1.38-2.77,13.76,13.76,0,0,1-.53-4m3.36,0a12.16,12.16,0,0,0,.42,3.48,4,4,0,0,0,1.23,2,4.66,4.66,0,0,0,1.67.88,7.64,7.64,0,0,0,2,.23,9.78,9.78,0,0,0,1.65-.12,4.83,4.83,0,0,0,1.44-.52,3.39,3.39,0,0,0,1.2-1.12,6.69,6.69,0,0,0,.78-2,12.36,12.36,0,0,0,.31-2.91,12.11,12.11,0,0,0-.42-3.46,3.92,3.92,0,0,0-1.25-2,4.41,4.41,0,0,0-1.67-.87,8,8,0,0,0-2-.22,9.7,9.7,0,0,0-1.63.12,4.78,4.78,0,0,0-1.45.54,3.42,3.42,0,0,0-1.2,1.1,6.53,6.53,0,0,0-.76,1.91,11.77,11.77,0,0,0-.31,2.9m32.34-9.32-5.41,7.81-5.41-7.81H84.72V40h3.37V26.15l5.77,8.27,5.78-8.27V40H103V21.28Zm8.73,0V40h12.44V37h-9.08V32.22h7.87V29h-7.87V24.3h9.08v-3ZM125.18,40V21.28h6.46q4.34,0,6.58,2.38c1.5,1.59,2.25,3.91,2.25,7s-.75,5.37-2.24,7S134.54,40,131.63,40Zm3.37-3h3.08a5.26,5.26,0,0,0,4.19-1.48c.86-1,1.28-2.59,1.28-4.83s-.42-3.87-1.28-4.86a5.29,5.29,0,0,0-4.19-1.48h-3.08Zm20.28-15.67L141.4,40H145l1.71-4.52h7.92L156.35,40H160l-7.43-18.7Zm1.85,3.82,2.78,7.33h-5.59l2.81-7.33Zm21-3.82-4.92,7.59-5-7.59h-4.06L165.12,32v8h3.37V32l7.31-10.67ZM32.77,19H16.56a4.61,4.61,0,0,0-4.62,3.29A6.26,6.26,0,0,0,11.73,24c0,5.08,0,10.17,0,15.25v.64l-.59,0c-2.82,0-5.65,0-8.47,0A2.43,2.43,0,0,1,0,37.27C0,30.1,0,22.92,0,15.75a3,3,0,0,1,1-2.38C5.53,9.22,10,5,14.5.88a2.46,2.46,0,0,1,3.79,0Q25,7.14,31.72,13.36a3,3,0,0,1,1.06,2.42c0,1,0,2.09,0,3.21"/><path class="cls-1" d="M32.55,21.26,14,39.81c0-.14,0-.29,0-.45V23.78a2.36,2.36,0,0,1,2.49-2.53c5.29,0,10.58,0,15.86,0l.23,0"/></g></g></svg>